<svg width="64" height="64" viewBox="0 0 64 64" fill="none" xmlns="http://www.w3.org/2000/svg">
  <rect width="64" height="64" rx="12" fill="#1565C0"/>
  <rect x="16" y="12" width="32" height="40" rx="2" fill="white"/>
  <rect x="18" y="14" width="28" height="8" rx="1" fill="#1565C0"/>
  <rect x="18" y="26" width="6" height="6" rx="1" fill="#1565C0"/>
  <rect x="26" y="26" width="6" height="6" rx="1" fill="#1565C0"/>
  <rect x="34" y="26" width="6" height="6" rx="1" fill="#1565C0"/>
  <rect x="42" y="26" width="4" height="22" rx="1" fill="#FF6F00"/>
  <rect x="18" y="34" width="6" height="6" rx="1" fill="#1565C0"/>
  <rect x="26" y="34" width="6" height="6" rx="1" fill="#1565C0"/>
  <rect x="34" y="34" width="6" height="6" rx="1" fill="#1565C0"/>
  <rect x="18" y="42" width="6" height="6" rx="1" fill="#1565C0"/>
  <rect x="26" y="42" width="6" height="6" rx="1" fill="#1565C0"/>
  <rect x="34" y="42" width="6" height="6" rx="1" fill="#1565C0"/>
</svg>
